<?xml version="1.0" standalone="no"?>
<!DOCTYPE svg PUBLIC "-//W3C//DTD SVG 20010904//EN"
 "http://www.w3.org/TR/2001/REC-SVG-20010904/DTD/svg10.dtd">
<svg version="1.0" xmlns="http://www.w3.org/2000/svg"
 width="192.000000pt" height="192.000000pt" viewBox="0 0 192.000000 192.000000"
 preserveAspectRatio="xMidYMid meet">
<metadata>
Created by potrace 1.11, written by Peter Selinger 2001-2013
</metadata>
<g transform="translate(0.000000,192.000000) scale(0.100000,-0.100000)"
fill="#000000" stroke="none">
<path d="M1014 1873 c-12 -51 -36 -87 -100 -154 -77 -80 -92 -131 -71 -230 7
-36 7 -37 -28 -41 -33 -4 -37 -2 -42 24 -7 35 -28 47 -76 45 -36 -2 -37 -3
-31 -34 11 -60 10 -66 -16 -73 l-24 -6 22 -22 c33 -33 27 -76 -10 -80 -33 -4
-34 -9 -8 -37 l20 -21 -20 -59 c-11 -32 -20 -84 -20 -116 0 -50 7 -71 45 -143
25 -48 45 -99 45 -116 0 -60 -63 -117 -115 -104 -14 3 -36 19 -50 36 -29 34
-59 128 -46 141 12 12 31 0 31 -20 0 -11 6 -14 23 -9 12 3 30 6 40 6 32 0 20
37 -15 49 -42 13 -105 18 -114 8 -15 -15 -52 -7 -57 13 -6 23 -51 43 -79 34
-18 -5 -17 -8 11 -25 17 -10 31 -23 31 -28 0 -13 -78 -36 -107 -33 -20 2 -23
-2 -23 -36 0 -25 7 -45 18 -55 23 -21 32 -13 32 29 0 32 1 32 44 32 36 0 43
-3 39 -17 -2 -9 -14 -21 -26 -26 -36 -16 -33 -43 5 -53 l33 -9 -33 -7 c-36 -9
-38 -27 -3 -36 31 -7 27 -24 -9 -33 -17 -4 -34 -15 -37 -23 -6 -17 26 -46 45
-39 22 8 13 -31 -18 -73 -38 -53 -10 -69 42 -24 16 13 18 12 28 -14 28 -77 36
-94 77 -156 66 -101 181 -191 290 -225 48 -15 54 -19 48 -40 -7 -30 9 -30 23
-1 6 13 11 17 11 10 1 -7 6 -10 13 -6 6 4 39 6 72 5 36 -1 94 7 140 19 44 11
82 18 85 15 3 -3 0 -15 -7 -25 -7 -12 -8 -20 -2 -20 5 0 16 12 24 28 12 23 15
25 21 9 4 -9 2 -24 -5 -32 -7 -9 -10 -18 -6 -22 11 -11 19 6 24 54 4 45 8 51
64 92 75 55 150 145 191 228 l32 64 89 -3 c59 -2 90 1 93 8 6 18 -55 38 -113
36 -48 -1 -54 1 -54 19 0 12 12 27 30 37 35 20 37 28 10 37 -15 5 -20 15 -20
40 l0 33 37 -10 c43 -12 113 -3 139 17 19 15 19 15 -1 30 -11 9 -30 25 -43 35
-31 27 -39 25 -34 -10 3 -24 0 -30 -21 -35 -53 -14 -91 42 -52 75 8 7 15 18
15 25 0 7 7 18 15 25 8 7 15 16 15 21 0 16 -50 22 -66 8 -14 -11 -16 -10 -14
11 4 45 0 60 -15 60 -8 0 -29 30 -49 73 -19 39 -52 94 -73 121 l-37 48 -53 -5
c-29 -3 -53 -4 -53 -1 0 3 13 30 29 62 15 31 31 69 35 85 3 15 12 27 20 27 7
0 20 7 27 16 11 14 9 20 -18 44 -18 16 -39 42 -47 58 -19 36 -62 72 -87 72
-15 0 -16 -4 -8 -32 16 -58 12 -98 -13 -107 -14 -5 -17 -10 -10 -15 21 -13 13
-27 -15 -24 -68 8 -89 107 -52 248 20 79 21 95 11 142 -12 50 -59 138 -74 138
-4 0 -11 -12 -14 -27z m-126 -496 c-27 -16 -68 -23 -78 -13 -8 8 -1 15 27 27
33 14 39 14 46 2 5 -8 7 -15 5 -16z m36 -73 c14 -36 -3 -112 -33 -153 -17 -22
-20 -23 -54 -10 -33 12 -37 17 -37 47 l0 35 50 -7 c44 -6 50 -4 50 11 0 10 -9
29 -20 43 -25 32 -25 38 3 43 12 2 25 5 28 6 4 0 10 -6 13 -15z m416 -200 c0
-19 -65 -84 -84 -84 -25 0 -56 37 -56 68 0 27 0 27 70 28 49 0 70 -4 70 -12z
m-595 -764 c-3 -5 -11 -10 -16 -10 -6 0 -7 5 -4 10 3 6 11 10 16 10 6 0 7 -4
4 -10z"/>
<path d="M1570 1490 c0 -34 -34 -91 -95 -159 -31 -34 -55 -70 -53 -79 2 -8 21
-21 44 -29 28 -9 63 -36 108 -84 37 -38 73 -68 79 -66 7 2 13 18 15 35 4 37
-47 99 -115 139 -23 13 -43 27 -43 30 0 3 29 41 65 86 36 45 65 85 65 90 0 10
-50 57 -61 57 -5 0 -9 -9 -9 -20z"/>
<path d="M370 1459 c17 -31 6 -34 -55 -14 -51 18 -56 18 -71 3 -15 -15 -15
-21 -2 -63 l16 -46 -29 -14 c-15 -8 -37 -15 -49 -15 -28 0 -25 -21 7 -44 24
-18 27 -18 55 -1 16 9 30 15 32 13 1 -1 15 -34 31 -72 45 -109 95 -156 109
-102 7 30 2 46 -47 123 -21 34 -35 67 -32 74 11 16 111 59 139 59 13 0 27 -7
30 -16 10 -25 -22 -53 -67 -61 l-40 -6 22 -19 c14 -10 39 -18 63 -18 54 0 88
34 88 89 0 56 -28 81 -92 81 -40 0 -48 3 -48 18 0 23 -30 52 -54 52 -14 0 -15
-4 -6 -21z m-46 -92 c-13 -8 -21 -5 -36 13 -26 32 -12 44 24 19 27 -20 29 -23
12 -32z"/>
</g>
</svg>
